<svg xmlns="http://www.w3.org/2000/svg" width="1024" height="1024" viewBox="0 0 1024 1024"><defs><linearGradient id="bg" x1="0" y1="0" x2="1024" y2="1024" gradientUnits="userSpaceOnUse"><stop offset="0" stop-color="#6646F1"/><stop offset="1" stop-color="#885AF6"/></linearGradient><clipPath id="squircle"><rect x="0" y="0" width="1024" height="1024" rx="228" ry="228"/></clipPath></defs><g clip-path="url(#squircle)"><rect x="0" y="0" width="1024" height="1024" fill="url(#bg)"/><g fill="none" stroke="#FFFFFF" stroke-width="58" stroke-linecap="round" stroke-linejoin="round"><path d="M293,137 L137,137 L137,293"/><path d="M731,137 L887,137 L887,293"/><path d="M293,887 L137,887 L137,731"/><path d="M731,887 L887,887 L887,731"/></g><path d="M444,332 Q444,535 642,535 Q444,535 444,738 Q444,535 246,535 Q444,535 444,332 Z" fill="#FFFFFF"/><path d="M713,286 Q713,354 778,354 Q713,354 713,422 Q713,354 648,354 Q713,354 713,286 Z" fill="#EBE5FD"/><path d="M714,658 Q714,726 780,726 Q714,726 714,794 Q714,726 648,726 Q714,726 714,658 Z" fill="#EBE5FD"/></g></svg>
